<?xml version="1.0" encoding="UTF-8" standalone="no"?>
<svg width="507px" height="96px" viewBox="0 0 507 96" version="1.1" xmlns="http://www.w3.org/2000/svg" xmlns:xlink="http://www.w3.org/1999/xlink" xmlns:sketch="http://www.bohemiancoding.com/sketch/ns">
    <!-- Generator: Sketch 3.5.2 (25235) - http://www.bohemiancoding.com/sketch -->
    <title>krew2</title>
    <desc>Created with Sketch.</desc>
    <defs></defs>
    <g id="Page-1" stroke="none" stroke-width="1" fill="none" fill-rule="evenodd" sketch:type="MSPage">
        <g id="krew2" sketch:type="MSLayerGroup">
            <path d="M66,96 C84.2253967,96 99,81.673112 99,64 C99,46.326888 84.2253967,32 66,32 C47.7746033,32 33,46.326888 33,64 C33,81.673112 47.7746033,96 66,96 Z" id="Oval-1" fill="#50E3D5" sketch:type="MSShapeGroup"></path>
            <ellipse id="Oval-1-Copy" opacity="0.876399254" fill="#FF8E86" sketch:type="MSShapeGroup" cx="33" cy="32" rx="33" ry="32"></ellipse>
            <path d="M155.148,63.56 L144.33408,47.7459197 L154.668,32.84 C155.244,32.024 154.86,31.4 153.9,31.4 L147.852,31.4 C147.228,31.4 146.796,31.64 146.412,32.168 L136.668,46.0145601 L136.668,32.6 C136.668,31.832 136.236,31.4 135.468,31.4 L130.188,31.4 C129.42,31.4 128.988,31.832 128.988,32.6 L128.988,63.8 C128.988,64.568 129.42,65 130.188,65 L135.468,65 C136.236,65 136.668,64.568 136.668,63.8 L136.668,49.4542402 L146.892,64.232 C147.228,64.76 147.708,65 148.332,65 L154.38,65 C155.34,65 155.676,64.376 155.148,63.56 L155.148,63.56 Z M186.204,63.512 L177.57552,52.5464001 C181.12416,50.6211201 183.51648,46.9495999 183.51648,42.9204797 C183.51648,36.5364797 178.38048,31.4004797 171.99648,31.4004797 L166.71648,31.4004797 L160.23648,31.4004797 C159.46848,31.4004797 159.03648,31.8324797 159.03648,32.6004797 L159.03648,63.8004797 C159.03648,64.5684797 159.46848,65.0004797 160.23648,65.0004797 L165.51648,65.0004797 C166.28448,65.0004797 166.71648,64.5684797 166.71648,63.8004797 L166.71648,53.9604797 L169.675679,53.9604797 L177.85248,64.2804797 C178.23648,64.8084797 178.71648,65.0004797 179.34048,65.0004797 L185.48448,65.0004797 C186.49248,65.0004797 186.82848,64.2804797 186.20448,63.5124797 L186.204,63.512 Z M166.71648,38.6004797 L171.99648,38.6004797 C174.10848,38.6004797 175.83648,40.4724797 175.83648,42.9204797 C175.83648,45.3684797 174.10848,47.2404797 171.99648,47.2404797 L166.71648,47.2404797 L166.71648,38.6004797 Z M208.236,57.608 L196.956,57.608 L196.956,51.608 L206.796,51.608 C207.564,51.608 207.996,51.176 207.996,50.408 L207.996,45.608 C207.996,44.84 207.564,44.408 206.796,44.408 L196.956,44.408 L196.956,38.792 L207.996,38.792 C208.764,38.792 209.196,38.36 209.196,37.592 L209.196,32.6 C209.196,31.832 208.764,31.4 207.996,31.4 L196.956,31.4 L190.476,31.4 C189.708,31.4 189.276,31.832 189.276,32.6 L189.276,63.8 C189.276,64.568 189.708,65 190.476,65 L191.676,65 L208.236,65 C209.004,65 209.436,64.568 209.436,63.8 L209.436,58.808 C209.436,58.04 209.004,57.608 208.236,57.608 L208.236,57.608 Z M252.684,31.4 L247.068,31.4 C246.348,31.4 245.916,31.784 245.772,32.456 L240.204,54.92 L234.636,32.456 C234.492,31.784 234.06,31.4 233.34,31.4 L228.684,31.4 C227.82,31.4 227.436,31.88 227.676,32.744 L229.19616,38.2726396 L224.748,54.92 L219.18,32.456 C219.036,31.784 218.604,31.4 217.884,31.4 L212.268,31.4 C211.404,31.4 211.02,31.88 211.26,32.744 L219.852,63.992 C220.044,64.712 220.524,65 221.196,65 L227.34,65 C228.012,65 228.492,64.712 228.684,63.992 L232.47936,50.2131201 L236.268,63.992 C236.46,64.712 236.94,65 237.612,65 L243.756,65 C244.428,65 244.908,64.712 245.1,63.992 L253.692,32.744 C253.932,31.88 253.548,31.4 252.684,31.4 L252.684,31.4 Z M287.676,38.792 C288.444,38.792 288.876,38.36 288.876,37.592 L288.876,32.6 C288.876,31.832 288.444,31.4 287.676,31.4 L276.636,31.4 L270.156,31.4 C269.388,31.4 268.956,31.832 268.956,32.6 L268.956,63.8 C268.956,64.568 269.388,65 270.156,65 L275.436,65 C276.204,65 276.636,64.568 276.636,63.8 L276.636,53.144 L287.436,53.144 C288.204,53.144 288.636,52.712 288.636,51.944 L288.636,46.952 C288.636,46.184 288.204,45.752 287.436,45.752 L276.636,45.752 L276.636,38.792 L287.676,38.792 Z M305.148,40.616 C302.76336,40.9735999 300.872161,42.3843198 300.156001,44.7939197 L300.156001,42.1995195 C300.156001,41.4315195 299.724001,40.9995195 298.956001,40.9995195 L294.156001,40.9995195 C293.388001,40.9995195 292.956001,41.4315195 292.956001,42.1995195 L292.956001,63.7995195 C292.956001,64.5675195 293.388001,64.9995195 294.156001,64.9995195 L298.956001,64.9995195 C299.724001,64.9995195 300.156001,64.5675195 300.156001,63.7995195 L300.156001,53.6715195 C300.156001,49.8315195 302.748001,48.4875195 305.436001,48.5835195 C306.060001,48.5835195 306.396001,48.1995195 306.396001,47.4315195 L306.396001,41.7675195 C306.396001,40.9995195 305.964001,40.4715195 305.148001,40.6155195 L305.148,40.616 Z M318.972,40.328 C314.076,40.328 309.66,42.968 309.036,48.152 C308.988,48.968 309.468,49.4 310.236,49.4 L314.94,49.4 C315.66,49.4 315.9,49.016 316.188,48.344 C316.572,47.528 317.484,46.952 318.972,46.952 C320.988,46.952 321.948,48.008 321.948,50.36 L321.948,52.5262402 C320.66112,51.5470405 318.77184,50.6960007 315.756,50.6960007 C311.532,50.6960007 307.836,53.1920007 307.836,58.1840007 C307.836,63.1760007 311.532,65.6720007 315.756,65.6720007 C318.77184,65.6720007 320.66112,64.620801 321.948,63.1145608 L321.948,63.8000007 C321.948,64.5680007 322.38,65.0000007 323.148,65.0000007 L327.756,65.0000007 C328.524,65.0000007 328.956,64.5680007 328.956,63.8000007 L328.956,49.8800007 C328.956,43.4000007 324.252,40.3280007 318.972,40.3280007 L318.972,40.328 Z M318.3,60.5840007 C316.092,60.5840007 315.036,59.5760007 315.036,58.1840007 C315.036,56.7920007 316.092,55.7840007 318.3,55.7840007 C320.652,55.7840007 321.948,56.6960007 321.948,58.1840007 C321.948,59.5760007 320.652,60.5840007 318.3,60.5840007 L318.3,60.5840007 Z M358.332,40.328 C355.452,40.328 353.4528,41.5208003 351.89712,43.1854399 C350.68896,41.3081599 348.75552,40.3284797 346.332,40.3284797 C343.82448,40.3284797 341.91216,41.5183994 340.812,43.1796794 L340.812,42.2004797 C340.812,41.4324797 340.38,41.0004797 339.612,41.0004797 L334.812,41.0004797 C334.044,41.0004797 333.612,41.4324797 333.612,42.2004797 L333.612,63.8004797 C333.612,64.5684797 334.044,65.0004797 334.812,65.0004797 L339.612,65.0004797 C340.38,65.0004797 340.812,64.5684797 340.812,63.8004797 L340.812,50.0244797 C340.812,47.6724797 342.156,46.9524797 343.596,46.9524797 C344.94,46.9524797 346.092,47.5284797 346.092,49.4484797 L346.092,63.8004797 C346.092,64.5684797 346.524,65.0004797 347.292,65.0004797 L352.092,65.0004797 C352.86,65.0004797 353.292,64.5684797 353.292,63.8004797 L353.292,50.0244797 C353.292,47.6724797 354.636,46.9524797 356.076,46.9524797 C357.42,46.9524797 358.572,47.5284797 358.572,49.4484797 L358.572,63.8004797 C358.572,64.5684797 359.004,65.0004797 359.772,65.0004797 L364.572,65.0004797 C365.34,65.0004797 365.772,64.5684797 365.772,63.8004797 L365.772,48.8244797 C365.772,43.3044797 363.036,40.3284797 358.332,40.3284797 L358.332,40.328 Z M382.092,40.328 C374.508,40.328 369.228,45.848 369.228,53 C369.228,60.152 374.316,65.672 382.284,65.672 C387.18,65.672 391.116,63.512 392.988,59.336 C393.372,58.568 392.892,57.992 392.028,57.992 L387.42,58.04 C386.796,58.04 386.412,58.28 385.932,58.664 C385.068,59.384 383.724,59.864 382.38,59.864 C379.87872,59.864 377.63904,58.7316802 376.76688,55.88 L386.94,55.88 L392.796,55.88 C393.516,55.88 393.996,55.544 394.092,54.776 C394.14,54.2 394.188,53.624 394.188,53 C394.188,45.752 389.1,40.328 382.092,40.328 L382.092,40.328 Z M376.73664,50.408 C377.47824,48.0142402 379.345439,46.712 382.043999,46.712 C384.161279,46.712 386.278559,47.6768003 387.02064,50.408 L376.73664,50.408 Z M437.34,31.4 L431.724,31.4 C431.004,31.4 430.572,31.784 430.428,32.456 L424.86,54.92 L419.292,32.456 C419.148,31.784 418.716,31.4 417.996,31.4 L413.34,31.4 C412.476,31.4 412.092,31.88 412.332,32.744 L413.85216,38.2726396 L409.404,54.92 L403.836,32.456 C403.692,31.784 403.26,31.4 402.54,31.4 L396.924,31.4 C396.06,31.4 395.676,31.88 395.916,32.744 L404.508,63.992 C404.7,64.712 405.18,65 405.852,65 L411.996,65 C412.668,65 413.148,64.712 413.34,63.992 L417.13536,50.2131201 L420.924,63.992 C421.116,64.712 421.596,65 422.268,65 L428.412,65 C429.084,65 429.564,64.712 429.756,63.992 L438.348,32.744 C438.588,31.88 438.204,31.4 437.34,31.4 L437.34,31.4 Z M450.972,65.672 C458.028,65.672 463.692,60.152 463.692,53 C463.692,45.848 458.028,40.328 450.972,40.328 C443.916,40.328 438.252,45.848 438.252,53 C438.252,60.152 443.916,65.672 450.972,65.672 L450.972,65.672 Z M450.972,58.664 C447.852,58.664 445.452,56.408 445.452,53 C445.452,49.592 447.852,47.336 450.972,47.336 C454.092,47.336 456.492,49.592 456.492,53 C456.492,56.408 454.092,58.664 450.972,58.664 L450.972,58.664 Z M479.964,40.616 C477.57936,40.9735999 475.688161,42.3843198 474.972001,44.7939197 L474.972001,42.1995195 C474.972001,41.4315195 474.540001,40.9995195 473.772001,40.9995195 L468.972001,40.9995195 C468.204001,40.9995195 467.772001,41.4315195 467.772001,42.1995195 L467.772001,63.7995195 C467.772001,64.5675195 468.204001,64.9995195 468.972001,64.9995195 L473.772001,64.9995195 C474.540001,64.9995195 474.972001,64.5675195 474.972001,63.7995195 L474.972001,53.6715195 C474.972001,49.8315195 477.564001,48.4875195 480.252001,48.5835195 C480.876001,48.5835195 481.212001,48.1995195 481.212001,47.4315195 L481.212001,41.7675195 C481.212001,40.9995195 480.780001,40.4715195 479.964001,40.6155195 L479.964,40.616 Z M505.836,63.56 L498.396,53 L505.452,42.44 C505.98,41.624 505.644,41 504.684,41 L499.164,41 C498.54,41 498.06,41.24 497.724,41.768 L491.532,51.4275203 L491.532,32.6 C491.532,31.832 491.1,31.4 490.332,31.4 L485.532,31.4 C484.764,31.4 484.332,31.832 484.332,32.6 L484.332,63.8 C484.332,64.568 484.764,65 485.532,65 L490.332,65 C491.1,65 491.532,64.568 491.532,63.8 L491.532,54.4740803 L498.204,64.232 C498.54,64.76 499.02,65 499.644,65 L505.116,65 C506.076,65 506.412,64.376 505.836,63.56 L505.836,63.56 Z" id="KREW-FrameWork" fill="#373837" sketch:type="MSShapeGroup"></path>
        </g>
    </g>
</svg>