<?xml version="1.0" encoding="UTF-8" standalone="no"?>
<svg width="295px" height="375px" viewBox="0 0 295 375" version="1.1" xmlns="http://www.w3.org/2000/svg" xmlns:xlink="http://www.w3.org/1999/xlink" xmlns:sketch="http://www.bohemiancoding.com/sketch/ns">
    <!-- Generator: Sketch 3.5.2 (25235) - http://www.bohemiancoding.com/sketch -->
    <title>Group 3</title>
    <desc>Created with Sketch.</desc>
    <defs></defs>
    <g id="Page-1" stroke="none" stroke-width="1" fill="none" fill-rule="evenodd" sketch:type="MSPage">
        <g id="Group-3" sketch:type="MSLayerGroup">
            <g id="ProjectKrew" sketch:type="MSShapeGroup">
                <g id="Page-1">
                    <g>
                        <g id="ProjectKrew">
                            <g id="Group">
                                <g>
                                    <path d="M70.612339,373.3125 L57.91973,354.780375 L70.0489492,337.3125 C70.7250169,336.35625 70.2743051,335.625 69.1475254,335.625 L62.0488136,335.625 C61.3164068,335.625 60.8093559,335.90625 60.3586441,336.525 L48.9218305,352.751438 L48.9218305,337.03125 C48.9218305,336.13125 48.4147797,335.625 47.5133559,335.625 L41.3160678,335.625 C40.4146441,335.625 39.9075932,336.13125 39.9075932,337.03125 L39.9075932,373.59375 C39.9075932,374.49375 40.4146441,375 41.3160678,375 L47.5133559,375 C48.4147797,375 48.9218305,374.49375 48.9218305,373.59375 L48.9218305,356.782313 L60.9220339,374.1 C61.3164068,374.71875 61.8797966,375 62.6122034,375 L69.7109153,375 C70.8376949,375 71.2320678,374.26875 70.612339,373.3125 L70.612339,373.3125 L70.612339,373.3125 Z M107.063661,373.25625 L96.9361659,360.405938 C101.101306,358.14975 103.909241,353.847188 103.909241,349.125562 C103.909241,341.644312 97.8809697,335.625562 90.387885,335.625562 L84.1905968,335.625562 L76.5848341,335.625562 C75.6834104,335.625562 75.1763595,336.131812 75.1763595,337.031812 L75.1763595,373.594312 C75.1763595,374.494312 75.6834104,375.000562 76.5848341,375.000562 L82.7821222,375.000562 C83.683546,375.000562 84.1905968,374.494312 84.1905968,373.594312 L84.1905968,362.063062 L87.6638951,362.063062 L97.2612409,374.156812 C97.7119528,374.775562 98.2753426,375.000562 99.0077494,375.000562 L106.219139,375.000562 C107.402258,375.000562 107.796631,374.156812 107.064224,373.256812 L107.063661,373.25625 L107.063661,373.25625 Z M84.1905968,344.063062 L90.387885,344.063062 C92.8668002,344.063062 94.8950036,346.256812 94.8950036,349.125562 C94.8950036,351.994312 92.8668002,354.188062 90.387885,354.188062 L84.1905968,354.188062 L84.1905968,344.063062 L84.1905968,344.063062 Z M132.923254,366.3375 L119.683593,366.3375 L119.683593,359.30625 L131.233085,359.30625 C132.134508,359.30625 132.641559,358.8 132.641559,357.9 L132.641559,352.275 C132.641559,351.375 132.134508,350.86875 131.233085,350.86875 L119.683593,350.86875 L119.683593,344.2875 L132.641559,344.2875 C133.542983,344.2875 134.050034,343.78125 134.050034,342.88125 L134.050034,337.03125 C134.050034,336.13125 133.542983,335.625 132.641559,335.625 L119.683593,335.625 L112.077831,335.625 C111.176407,335.625 110.669356,336.13125 110.669356,337.03125 L110.669356,373.59375 C110.669356,374.49375 111.176407,375 112.077831,375 L113.486305,375 L132.923254,375 C133.824678,375 134.331729,374.49375 134.331729,373.59375 L134.331729,367.74375 C134.331729,366.84375 133.824678,366.3375 132.923254,366.3375 L132.923254,366.3375 L132.923254,366.3375 Z M185.093153,335.625 L178.501492,335.625 C177.656407,335.625 177.149356,336.075 176.980339,336.8625 L170.445017,363.1875 L163.909695,336.8625 C163.740678,336.075 163.233627,335.625 162.388542,335.625 L156.923661,335.625 C155.909559,335.625 155.458847,336.1875 155.740542,337.2 L157.524798,343.678875 L152.303864,363.1875 L145.768542,336.8625 C145.599525,336.075 145.092475,335.625 144.24739,335.625 L137.655729,335.625 C136.641627,335.625 136.190915,336.1875 136.47261,337.2 L146.557288,373.81875 C146.782644,374.6625 147.346034,375 148.13478,375 L155.346169,375 C156.134915,375 156.698305,374.6625 156.923661,373.81875 L161.378385,357.671625 L165.82522,373.81875 C166.050576,374.6625 166.613966,375 167.402712,375 L174.614102,375 C175.402847,375 175.966237,374.6625 176.191593,373.81875 L186.276271,337.2 C186.557966,336.1875 186.107254,335.625 185.093153,335.625 L185.093153,335.625 L185.093153,335.625 Z" id="KREW" fill="#FF8E86"></path>
                                    <path d="M154.421271,147.248437 L154.421271,134.123437 C171.895746,134.123437 186.111949,119.929687 186.111949,102.482812 C186.111949,88.6078125 177.088322,76.5234375 163.660864,72.3984375 L158.491763,70.809375 L159.055153,65.4375 C159.228864,63.796875 159.322763,62.1421875 159.322763,60.459375 C159.322763,34.5890625 138.237898,13.5328125 112.326661,13.5328125 C86.4154237,13.5328125 65.3305593,34.584375 65.3305593,60.459375 C65.3305593,62.2359375 65.4526271,63.984375 65.6404237,65.709375 L66.1991186,70.70625 L61.5088983,72.5390625 C52.2082712,76.18125 46.1987797,84.9328125 46.1987797,94.8421875 C46.1987797,109.082812 59.2506441,116.629687 71.4668136,118.959375 L69.006678,131.854687 C47.1612373,127.701562 33.0530169,113.175 33.0530169,94.8421875 C33.0530169,81.159375 40.4334237,68.90625 52.217661,62.41875 C52.1941864,61.771875 52.1801017,61.115625 52.1801017,60.459375 C52.1801017,27.346875 79.1570847,0.4078125 112.321966,0.4078125 C145.486847,0.4078125 172.463831,27.3421875 172.463831,60.459375 C172.463831,60.871875 172.459136,61.275 172.449746,61.678125 C188.675373,68.7609375 199.248322,84.5625 199.248322,102.482812 C199.257712,127.167187 179.144695,147.248437 154.421271,147.248437 L154.421271,147.248437 L154.421271,147.248437 Z" id="Shape" fill="#FF8E86"></path>
                                    <path d="M212.403475,311.71875 L15.2170339,311.71875 C9.34369492,311.71875 4.59713559,309.304688 2.18864407,305.090625 C-0.219847458,300.88125 0.113491525,295.565625 3.09945763,290.517188 L75.1711017,168.740625 C78.2462712,163.542188 80.9458475,153.684375 80.9458475,147.65625 L80.9458475,62.34375 C80.9458475,51.4875 89.7910678,42.65625 100.664492,42.65625 L120.383136,42.65625 C131.256559,42.65625 140.10178,51.4875 140.10178,62.34375 L140.10178,147.65625 C140.10178,153.628125 142.918729,163.29375 146.130051,168.332813 L224.037475,290.559375 C227.215932,295.546875 227.704203,300.834375 225.375525,305.0625 C223.046847,309.290625 218.319068,311.71875 212.403475,311.71875 L212.403475,311.71875 L212.403475,311.71875 Z M13.8367288,298.453125 C14.1465932,298.528125 14.602,298.59375 15.2170339,298.59375 L212.403475,298.59375 C212.826017,298.59375 213.173441,298.560938 213.445746,298.523438 C213.333068,298.265625 213.173441,297.960938 212.94339,297.604688 L135.040661,175.378125 C130.510068,168.2625 126.956017,156.089063 126.956017,147.65625 L126.956017,62.34375 C126.956017,58.725 124.00761,55.78125 120.383136,55.78125 L100.664492,55.78125 C97.0400169,55.78125 94.0916102,58.725 94.0916102,62.34375 L94.0916102,147.65625 C94.0916102,156.01875 90.7535254,168.215625 86.4905424,175.420313 L14.4142034,297.196875 C14.104339,297.726563 13.9259322,298.153125 13.8367288,298.453125 L13.8367288,298.453125 L13.8367288,298.453125 Z" id="Shape" fill="#50E3D5"></path>
                                    <path d="M95.2427197,199.769155 L101.722262,203.249916 L55.7406379,288.575928 L49.2610956,285.095167 L95.2427197,199.769155 L95.2427197,199.769155 Z" id="Rectangle-path" fill="#50E3D5"></path>
                                </g>
                            </g>
                        </g>
                    </g>
                </g>
            </g>
            <g id="Group-2" transform="translate(196.000000, 140.000000)" sketch:type="MSShapeGroup">
                <path d="M66,96 C84.2253967,96 99,81.673112 99,64 C99,46.326888 84.2253967,32 66,32 C47.7746033,32 33,46.326888 33,64 C33,81.673112 47.7746033,96 66,96 Z" id="Oval-1" fill="#50E3D5"></path>
                <ellipse id="Oval-1-Copy" opacity="0.876399254" fill="#FF8E86" cx="33" cy="32" rx="33" ry="32"></ellipse>
            </g>
        </g>
    </g>
</svg>