<?xml version="1.0" encoding="utf-8"?>
<!-- Generator: Adobe Illustrator 18.1.1, SVG Export Plug-In . SVG Version: 6.00 Build 0)  -->
<svg version="1.1" id="Layer_1" xmlns="http://www.w3.org/2000/svg" xmlns:xlink="http://www.w3.org/1999/xlink" x="0px" y="0px"
	 viewBox="0 0 269 275" enable-background="new 0 0 269 275" xml:space="preserve">
<g>
	<g>
		<path fill="#00BBC6" d="M50.6,95.9C125.1,48.4,233,11.6,249.2,24.1c15.7,12-20.8,198.4-20.8,198.4c-11.8,47.6-9,9-8-2
			c9.5-104.5,42.6-169.8,17.8-181.5C213.4,27.2,112.6,67.1,50.8,99.7C33.6,111.5,26.3,112.8,50.6,95.9z"/>
		<path fill="#00BBC6" d="M220.5,247.7c-0.7,0-1.3-0.3-1.8-0.8c-0.7-0.8-2.5-2.8-0.3-26.6c3.9-42.8,11.7-78.8,18-107.7
			c8.5-39.5,14.2-65.5,0.9-71.8c-2.7-1.3-6.5-1.9-11.4-1.9c-27.3,0-99.8,23.4-174,62.6c-3.3,2.2-13.6,9.2-16.5,9.2
			c-1,0-1.9-0.6-2.2-1.5c-0.5-1.5-0.9-2.8,16.4-14.8c66-42,155.5-74.6,188.6-74.6c5.8,0,9.8,0.9,12.3,2.9c5.5,4.2,5.1,22.4,4.1,37.8
			c-1.1,17-3.7,39.8-7.9,67.8c-7.1,47.6-16.2,94.3-16.3,94.8l0,0.1c-2,8.2-3.8,14.3-5.1,18.3C223.4,246.1,222.3,247.7,220.5,247.7
			L220.5,247.7z M225.9,34.8c5.5,0,9.9,0.8,13.1,2.3c16.1,7.6,10.5,33.5,1.3,76.3c-6.2,28.8-14,64.7-17.9,107.3
			c-0.7,7.9-1.1,15-1,19.4c1.1-3.1,2.7-8.5,5.1-18c0.3-1.8,9.3-47.7,16.3-94.6c12.8-85.8,8-99.8,5.3-101.8c-1.2-0.9-3.9-2-9.9-2
			c-31.7,0-116.3,30.6-181,70.6C107.5,68.4,188.7,34.8,225.9,34.8z"/>
	</g>
	<g>
		<path fill="#00BBC6" d="M229.3,57.5c-27.8,47.6-64,99.6-107.6,134.2c-24.8,19.7-51.4-21.8-62.7-38.9c-2.3-3.5-4.5-6.7-8.4-8.2
			c-0.5,3.5,1.6,5.8,3.9,9c10.2,14.4,21.8,29.3,36.4,39.5c18.4,12.9,31.5,10.3,47.4-4.9c39.2-37.6,76.7-78.1,95.4-130.1
			C235.5,53.2,229.3,57.5,229.3,57.5z"/>
		<path fill="#00BBC6" d="M112.5,203.5C112.5,203.5,112.5,203.5,112.5,203.5c-7,0-14.5-2.8-22.8-8.6c-14.8-10.3-26.5-25.3-36.9-40
			c-0.2-0.4-0.5-0.7-0.7-1c-2-2.8-4-5.5-3.5-9.4l0.3-2.5l2.3,0.8c4.6,1.7,7.2,5.5,9.4,8.9l0.8,1.2c9,13.6,27.8,42,46.4,42
			c0,0,0,0,0,0c4.4,0,8.6-1.6,12.6-4.8c36.1-28.7,72.1-73.7,107.1-133.7l0.1-0.2l0.2-0.2c0.2-0.2,3.1-2.3,5.3-2.3
			c1,0,1.8,0.4,2.4,1.2c0.9,1.3,0.5,2.9,0.1,4c-18.8,52.2-57.2,93.8-95.9,130.8C129.7,199.3,121.4,203.5,112.5,203.5z M107.4,199
			c1.7,0.4,3.5,0.6,5.1,0.6c0,0,0,0,0,0c7.8,0,15.3-3.9,24.4-12.6c44-42.2,77-80.2,94.6-128.4c-0.2,0.1-0.5,0.3-0.7,0.4
			c-35.2,60.2-71.5,105.5-107.8,134.4C118.1,197.2,112.8,199.1,107.4,199z M53.6,149.1c0.4,0.7,1,1.5,1.7,2.4
			c0.2,0.3,0.5,0.7,0.8,1.1c1.3,1.9,2.6,3.7,4,5.6c-0.7-1-1.3-2-2-2.9l-0.8-1.2C56.1,152.2,55,150.5,53.6,149.1z"/>
	</g>
	<g>
		<path fill="#00BBC6" d="M197.7,241.1C76.8,213.1,65.9,259.3,33.3,230c-11.2-9.9-9.4-22.1-9.4-22.1c0.5-11.1-3.6-3.6-2.9,0.3
			c0,0-0.5,17.7,14.5,28.8c35.5,20.2,18.8-2.2,174.8,10.7C217.7,247.6,197.7,241.1,197.7,241.1z"/>
		<path fill="#00BBC6" d="M210.2,249.7L210.2,249.7c-34.3-2.8-64.2-4.3-88.9-4.3c-21.1,0-34.6,1-44.4,1.7c-5.6,0.4-9.9,0.7-13.8,0.7
			c-9.6,0-16-2-28.5-9.1l-0.2-0.1C19.4,227.5,19,210.5,19,208.3c-0.4-2.6,0.6-5.8,1.8-7.2c0.8-0.9,1.6-1.1,2.1-1.1
			c0.7,0,1.3,0.3,1.8,0.8c0.7,0.8,1.4,2.2,1.2,7.2l0,0.2c-0.1,0.5-1.5,11.4,8.7,20.3c7.7,6.9,14.1,9.7,22.3,9.7c0,0,0,0,0,0
			c5.5,0,11.5-1.2,19-2.8c12-2.5,27-5.6,48.8-5.6c21.8,0,45.8,3.1,73.4,9.5l0.2,0c16.1,5.2,15.9,6.7,15.6,8.3
			C213.6,249.6,211.1,249.7,210.2,249.7L210.2,249.7z M121.3,241.4c23.1,0,50.5,1.2,81.8,3.7c-1.9-0.7-4-1.4-5.9-2
			c-27.2-6.3-50.9-9.4-72.4-9.4c-21.5,0-36.2,3.1-48,5.6c-7.5,1.6-13.9,2.9-19.9,2.9c0,0,0,0,0,0c-3.3,0-6.4-0.4-9.4-1.3
			c5.5,2.3,9.9,3,15.6,3c3.7,0,8-0.3,13.5-0.7C86.5,242.4,100.1,241.4,121.3,241.4z M36.6,235.3c0.1,0.1,0.3,0.2,0.4,0.2
			c-0.7-0.5-1.4-1-2.1-1.6C35.5,234.5,36,234.9,36.6,235.3z"/>
	</g>
</g>
</svg>
